<svg xmlns="http://www.w3.org/2000/svg" viewBox="0 0 100 100" fill="none" stroke="#b2f746" stroke-width="5.5" stroke-linecap="round" stroke-linejoin="round">
  <!-- Leaf outline with tail pointing bottom-right -->
  <path d="M 50 6 C 28 6, 6 28, 6 50 C 6 72, 25 94, 50 94 C 63 94, 75 88, 83 79 L 94 94 L 79 83 C 88 75, 94 63, 94 50 C 94 28, 72 6, 50 6 Z"/>
  <!-- Central chip -->
  <rect x="36" y="36" width="28" height="28" rx="3"/>
  <!-- Chip inner vertical lines -->
  <line x1="44" y1="36" x2="44" y2="64"/>
  <line x1="56" y1="36" x2="56" y2="64"/>
  <!-- Left traces + pads -->
  <line x1="36" y1="43" x2="21" y2="43"/>
  <circle cx="21" cy="43" r="3.5" fill="#b2f746"/>
  <line x1="36" y1="57" x2="21" y2="57"/>
  <circle cx="21" cy="57" r="3.5" fill="#b2f746"/>
  <!-- Right traces + pads -->
  <line x1="64" y1="43" x2="79" y2="43"/>
  <circle cx="79" cy="43" r="3.5" fill="#b2f746"/>
  <line x1="64" y1="57" x2="79" y2="57"/>
  <circle cx="79" cy="57" r="3.5" fill="#b2f746"/>
  <!-- Top traces + pads -->
  <line x1="44" y1="36" x2="44" y2="21"/>
  <circle cx="44" cy="21" r="3.5" fill="#b2f746"/>
  <line x1="56" y1="36" x2="56" y2="21"/>
  <circle cx="56" cy="21" r="3.5" fill="#b2f746"/>
  <!-- Bottom traces + pads -->
  <line x1="44" y1="64" x2="44" y2="79"/>
  <circle cx="44" cy="79" r="3.5" fill="#b2f746"/>
  <line x1="56" y1="64" x2="56" y2="79"/>
  <circle cx="56" cy="79" r="3.5" fill="#b2f746"/>
</svg>
